<?xml version="1.0" encoding="UTF-8"?>
<svg version="1.1" xmlns="http://www.w3.org/2000/svg" width="512" height="512">
<path d="M0 0 C168.96 0 337.92 0 512 0 C512 168.96 512 337.92 512 512 C343.04 512 174.08 512 0 512 C0 343.04 0 174.08 0 0 Z " fill="#FEFEFE" transform="translate(0,0)"/>
<path d="M0 0 C52.12943161 -0.09038062 104.25884445 -0.16201418 156.38833884 -0.20426132 C162.53932889 -0.20926429 168.69031878 -0.21444156 174.84130859 -0.21972656 C176.06588679 -0.2207758 177.29046498 -0.22182505 178.55215161 -0.22290608 C198.39389247 -0.24032277 218.23558709 -0.27186742 238.0773005 -0.30861118 C258.42884992 -0.34598544 278.78037508 -0.36822841 299.13195741 -0.37635398 C311.69523923 -0.38184904 324.25839035 -0.39921975 336.82163195 -0.43166587 C345.43063795 -0.45277035 354.03957614 -0.45920927 362.64860614 -0.45400551 C367.61944323 -0.4514374 372.59005156 -0.45544069 377.56084824 -0.4768219 C382.10962364 -0.49624542 386.6580158 -0.49729739 391.20680861 -0.48359558 C392.85428766 -0.48190141 394.50179035 -0.48701119 396.14922269 -0.49953273 C398.38614932 -0.51554919 400.62168642 -0.50695791 402.85859108 -0.49219131 C404.10179544 -0.4937102 405.3449998 -0.49522908 406.62587702 -0.49679399 C410.65921091 0.09705989 412.8404053 1.47074395 416 4 C424.349318 20.69863601 417 41.33035738 417 60 C279.39 60 141.78 60 0 60 C0 40.2 0 20.4 0 0 Z " fill="#0A090A" transform="translate(36,282)"/>
<path d="M0 0 C38.75217662 0 38.75217662 0 47.59375 8.3828125 C52.01434888 13.46650121 52.49333044 18.89585209 52.28125 25.35546875 C51.52816927 32.43651953 48.15200138 36.50570093 43 41 C42.34 41 41.68 41 41 41 C44.8806994 48.28649944 49.31151513 55.0644353 53.97851562 61.86523438 C54.49736328 62.63029297 55.01621094 63.39535156 55.55078125 64.18359375 C56.02169189 64.86993896 56.49260254 65.55628418 56.9777832 66.26342773 C58 68 58 68 58 70 C52.67579918 70.4149557 47.3721098 70.64969503 42.03125 70.52734375 C40.71737305 70.50015259 40.71737305 70.50015259 39.37695312 70.47241211 C36.43590069 69.887887 35.31736063 68.86945169 33.375 66.625 C32.57072968 64.7553716 31.78198304 62.87905924 31 61 C29.11988562 57.80510517 27.11210946 54.69165489 25.125 51.5625 C24.14131836 49.98488546 23.16427143 48.4031059 22.1953125 46.81640625 C21.77266113 46.13006104 21.35000977 45.44371582 20.91455078 44.73657227 C20 43 20 43 20 41 C19.34 41 18.68 41 18 41 C18 50.57 18 60.14 18 70 C12.06 70 6.12 70 0 70 C0 46.9 0 23.8 0 0 Z " fill="#050304" transform="translate(391,201)"/>
<path d="M0 0 C3.3 0 6.6 0 10 0 C10.51433594 1.17304688 11.02867187 2.34609375 11.55859375 3.5546875 C14.92891216 11.13827493 18.48755303 18.63610559 22.01196289 26.14892578 C22.93731506 28.12227581 23.86128644 30.09626813 24.78515625 32.0703125 C25.33051025 33.23320801 25.87586426 34.39610352 26.43774414 35.59423828 C28.01806467 39.03938148 29.51093012 42.51460557 31 46 C31.891956 47.96968913 32.79156446 49.93593286 33.69921875 51.8984375 C34.18583984 52.95417969 34.67246094 54.00992188 35.17382812 55.09765625 C36.19392476 57.30632999 37.21477389 59.51465631 38.23632812 61.72265625 C38.71908203 62.77066406 39.20183594 63.81867188 39.69921875 64.8984375 C40.36183716 66.33195557 40.36183716 66.33195557 41.0378418 67.79443359 C42 70 42 70 42 71 C35.07 71 28.14 71 21 71 C20.01 68.69 19.02 66.38 18 64 C9.09 63.67 0.18 63.34 -9 63 C-9.66 65.64 -10.32 68.28 -11 71 C-17.93 71 -24.86 71 -32 71 C-29.99306636 64.97919907 -27.98325877 59.46707967 -25.25 53.8125 C-24.90291992 53.08345459 -24.55583984 52.35440918 -24.19824219 51.60327148 C-21.94437389 46.89096404 -19.61172739 42.22142671 -17.25 37.5625 C-14.95254937 33.00899424 -12.92077868 28.4660911 -11.09765625 23.70703125 C-9.66130482 20.1647126 -8.05864033 16.71093238 -6.4375 13.25 C-6.14423828 12.62359619 -5.85097656 11.99719238 -5.54882812 11.35180664 C-3.75278077 7.54027387 -1.89812572 3.76163516 0 0 Z " fill="#070506" transform="translate(174,200)"/>
<path d="M0 0 C14.85 0 29.7 0 45 0 C45 5.61 45 11.22 45 17 C36.09 17 27.18 17 18 17 C18 20.3 18 23.6 18 27 C25.59 27 33.18 27 41 27 C41 32.28 41 37.56 41 43 C33.41 43 25.82 43 18 43 C18 46.3 18 49.6 18 53 C26.91 53 35.82 53 45 53 C45 58.61 45 64.22 45 70 C30.15 70 15.3 70 0 70 C0 46.9 0 23.8 0 0 Z " fill="#050304" transform="translate(335,201)"/>
<path d="M0 0 C4.09876057 1.46979584 6.98066096 4.82653265 10.11328125 7.7578125 C10.68175781 8.26183594 11.25023438 8.76585937 11.8359375 9.28515625 C31.17370073 27.25144691 45.0046429 56.37222982 54.11328125 80.7578125 C54.48453125 81.62535156 54.85578125 82.49289062 55.23828125 83.38671875 C56.60059466 87.07834482 56.42997665 89.83078958 56.11328125 93.7578125 C55.05078125 95.8203125 55.05078125 95.8203125 53.11328125 96.7578125 C49.61328125 96.7578125 49.61328125 96.7578125 46.11328125 95.7578125 C43.23645881 91.9363618 42.03583774 87.66967426 40.73828125 83.1328125 C38.74114233 76.45907189 36.59603379 69.83124413 33.11328125 63.7578125 C32.12328125 63.2628125 32.12328125 63.2628125 31.11328125 62.7578125 C30.99597656 63.4796875 30.87867188 64.2015625 30.7578125 64.9453125 C30.095969 67.83335687 29.10712031 70.10469044 27.80078125 72.7578125 C25.3359088 77.985042 23.68999202 83.23503569 22.203125 88.8125 C20.98132285 92.11443126 19.55388534 94.22987982 17.11328125 96.7578125 C13.98828125 97.2578125 13.98828125 97.2578125 11.11328125 96.7578125 C8.39255909 92.67672926 8.38612412 89.4648564 9.11328125 84.7578125 C11.92444996 75.85922331 16.05350828 67.4929399 20.484375 59.30053711 C22.67398457 55.1373695 24.04203599 51.558647 24.11328125 46.7578125 C22.77204279 43.522689 22.77204279 43.522689 20.61328125 40.5078125 C20.24960449 39.95641602 19.88592773 39.40501953 19.51123047 38.83691406 C18.76036997 37.69904905 18.00234238 36.56588185 17.23730469 35.4375 C15.49871229 32.83942969 13.87998919 30.16779499 12.23828125 27.5078125 C10.23838646 24.01727562 10.23838646 24.01727562 7.11328125 21.7578125 C6.91937396 24.06978405 6.73331758 26.3824154 6.55078125 28.6953125 C6.44636719 29.98308594 6.34195313 31.27085937 6.234375 32.59765625 C6.19441406 33.64050781 6.15445313 34.68335938 6.11328125 35.7578125 C6.60828125 36.2528125 6.60828125 36.2528125 7.11328125 36.7578125 C8.08924673 45.40207821 5.54660367 52.42064821 2.84375 60.49609375 C0.99079341 66.03606651 -0.61804541 71.63516009 -2.19921875 77.2578125 C-2.69511329 79.01828529 -3.19119252 80.77870608 -3.6875 82.5390625 C-3.89544189 83.28220703 -4.10338379 84.02535156 -4.31762695 84.79101562 C-4.80021465 86.45885196 -5.33766785 88.1106598 -5.88671875 89.7578125 C-13.92243304 88.95424107 -13.92243304 88.95424107 -17.88671875 86.7578125 C-16.86528486 79.28762432 -14.85654074 72.58349237 -12.234375 65.52734375 C-10.5757629 60.99016826 -9.24637637 56.37046222 -7.90966797 51.73046875 C-5.78432086 44.3586354 -3.54375457 37.02348268 -1.29736328 29.68774414 C-0.73872146 27.8603414 -0.18612486 26.03107574 0.359375 24.19970703 C0.8277254 22.68272494 1.3297813 21.17521306 1.8828125 19.68701172 C2.64897185 17.68702959 2.64897185 17.68702959 3.11328125 14.7578125 C1.86581867 12.18693234 1.86581867 12.18693234 -0.26171875 10.1328125 C-3.84213633 6.30356281 -3.84213633 6.30356281 -4.11328125 2.984375 C-4.03851563 2.24960938 -3.96375 1.51484375 -3.88671875 0.7578125 C-1.88671875 -0.2421875 -1.88671875 -0.2421875 0 0 Z " fill="#0F0D0E" transform="translate(53.88671875,181.2421875)"/>
<path d="M0 0 C2.38097753 1.56362704 3.35095694 2.5853298 5 5 C4.74770038 9.41163904 3.09590284 11.35463068 -0.0625 14.3125 C-0.79597656 15.00988281 -1.52945313 15.70726562 -2.28515625 16.42578125 C-2.85105469 16.94527344 -3.41695313 17.46476562 -4 18 C-4.61230469 17.69320312 -5.22460938 17.38640625 -5.85546875 17.0703125 C-10.82987562 14.58763949 -14.35964531 13.77880962 -20 14 C-20.33 15.65 -20.66 17.3 -21 19 C-17.1065914 21.36990088 -13.41460099 23.26422214 -9.125 24.8125 C-2.63741127 27.31230483 3.11676112 31.17514167 7 37 C8.4924328 43.26821775 9.45615599 51.28982924 6 57 C1.22868218 63.271283 -4.32570334 66.3741717 -12 68 C-20.97782959 68.88076812 -29.90330743 68.85464144 -37.32421875 63.2421875 C-39.28450607 61.55216667 -41.16532113 59.82468062 -43 58 C-42.51286902 53.58489226 -41.14946803 51.69553355 -37.9375 48.6875 C-37.20402344 47.99011719 -36.47054687 47.29273438 -35.71484375 46.57421875 C-35.14894531 46.05472656 -34.58304688 45.53523438 -34 45 C-33.12408203 45.44472656 -33.12408203 45.44472656 -32.23046875 45.8984375 C-25.81933282 49.06470779 -20.24458631 50.8243293 -13 50 C-11.74843946 48.95137906 -11.74843946 48.95137906 -11.6875 46.625 C-11.71794174 43.91032905 -11.71794174 43.91032905 -13.7265625 42.44921875 C-16.01994856 40.98728365 -18.12779012 40.09019962 -20.6875 39.1875 C-29.13401832 35.89859021 -35.28129284 31.81535873 -40 24 C-41.45003323 19.6499003 -41.51146244 15.5463328 -41 11 C-39.3125 7.6875 -39.3125 7.6875 -37 5 C-36.278125 4.13375 -35.55625 3.2675 -34.8125 2.375 C-24.46903878 -6.35947836 -11.76269505 -5.98828112 0 0 Z " fill="#080607" transform="translate(261,204)"/>
<path d="M0 0 C6.89872522 4.05476094 11.9640669 8.67303936 14.6875 16.3125 C16.07440568 24.61156462 14.54024696 31.45509183 9.6875 38.3125 C5.13726484 43.42475945 -0.22802647 46.85553542 -7.140625 47.62890625 C-13.72574404 47.88536189 -18.99819612 47.40130708 -24.3125 43.3125 C-30.51611145 37.54664339 -34.34037374 31.61933076 -34.8125 23 C-34.56818168 15.87567779 -32.28169415 10.21189393 -27.15234375 5.203125 C-19.17254166 -1.24466166 -9.88742152 -4.69652522 0 0 Z " fill="#EEEEEE" transform="translate(393.3125,288.6875)"/>
<path d="M0 0 C17.16 0 34.32 0 52 0 C52 5.61 52 11.22 52 17 C46.39 17 40.78 17 35 17 C35 34.49 35 51.98 35 70 C29.06 70 23.12 70 17 70 C17 52.51 17 35.02 17 17 C11.39 17 5.78 17 0 17 C0 11.39 0 5.78 0 0 Z " fill="#020101" transform="translate(274,201)"/>
<path d="M0 0 C17 0 17 0 23 4 C25.69672383 6.69672383 26.8734428 8.1502588 27.4375 11.9375 C26.93611052 15.44722633 25.75056701 17.93650774 24 21 C24.7425 21.37125 25.485 21.7425 26.25 22.125 C30.36574335 24.93118864 32.59944794 27.95273394 33.5625 32.875 C32.6488102 37.95105442 30.05751282 42.11279197 26.25976562 45.59619141 C23.42318627 47.35832746 21.68030466 47.34596231 18.359375 47.29296875 C17.39483398 47.28547607 16.43029297 47.2779834 15.43652344 47.27026367 C14.2199707 47.24295166 13.00341797 47.21563965 11.75 47.1875 C5.93375 47.0946875 5.93375 47.0946875 0 47 C0 31.49 0 15.98 0 0 Z " fill="#F0F0F0" transform="translate(42,288)"/>
<path d="M0 0 C17.44 0 17.44 0 24.375 4.5625 C26.93652611 8.40478917 26.61836477 12.51326028 26 17 C24.9765625 19.3125 24.9765625 19.3125 24 21 C24.94875 21.598125 25.8975 22.19625 26.875 22.8125 C30 25 30 25 32 28 C32.85648344 33.15693187 32.73034455 37.63736746 29.6875 42 C27.88250887 44.25488381 26.48108422 45.34594385 24 47 C21.45629883 47.22705078 21.45629883 47.22705078 18.45703125 47.1953125 C17.48999268 47.19031738 16.5229541 47.18532227 15.52661133 47.18017578 C14.30095459 47.16196777 13.07529785 47.14375977 11.8125 47.125 C7.914375 47.08375 4.01625 47.0425 0 47 C0 31.49 0 15.98 0 0 Z " fill="#F8F8F8" transform="translate(166,288)"/>
<path d="M0 0 C1.0209375 0.433125 1.0209375 0.433125 2.0625 0.875 C2.78125 3.09375 2.78125 3.09375 3.0625 5.875 C1.44674282 8.38458031 -0.4557808 10.39496826 -2.46875 12.59375 C-4.19077051 14.73419289 -4.19077051 14.73419289 -3.67041016 17.05688477 C-2.77797556 20.48838795 -1.75470468 23.86851268 -0.6796875 27.24609375 C-0.34367271 28.31251602 -0.34367271 28.31251602 -0.00086975 29.40048218 C0.72605536 31.70529638 1.45670348 34.00891071 2.1875 36.3125 C2.68827183 37.89731569 3.18884059 39.48219556 3.68920898 41.06713867 C4.91985093 44.96278589 6.15365587 48.85742123 7.38897705 52.75158691 C8.00444803 54.6919798 8.6192046 56.63259926 9.23388672 58.57324219 C10.7266718 63.28560914 12.22140751 67.99735308 13.72265625 72.70703125 C13.95227051 73.42971191 14.18188477 74.15239258 14.41845703 74.89697266 C14.99724476 76.6745838 15.61902948 78.43805805 16.24609375 80.19921875 C17.0625 82.875 17.0625 82.875 17.0625 86.875 C15.4392313 87.5458712 13.81382422 88.21157029 12.1875 88.875 C11.28257812 89.24625 10.37765625 89.6175 9.4453125 90 C7.0625 90.875 7.0625 90.875 5.0625 90.875 C2.21917016 81.88523799 -0.57261769 72.88418879 -3.19091797 63.82592773 C-4.05153176 60.85236583 -4.92819399 57.90258436 -5.91796875 54.96875 C-7.95800826 48.91567501 -8.54028012 43.26215086 -7.9375 36.875 C-7.6075 36.545 -7.2775 36.215 -6.9375 35.875 C-7.21289746 33.53412158 -7.5561926 31.20097511 -7.9375 28.875 C-8.123125 27.740625 -8.30875 26.60625 -8.5 25.4375 C-8.644375 24.591875 -8.78875 23.74625 -8.9375 22.875 C-13.23625672 26.60058916 -15.8120502 31.29484811 -18.6875 36.125 C-19.44740234 37.38570312 -19.44740234 37.38570312 -20.22265625 38.671875 C-21.46614341 40.73653293 -22.70420857 42.80424133 -23.9375 44.875 C-28.01634045 43.51538652 -28.87566372 41.57208575 -30.9375 37.875 C-31.5313286 34.31202837 -30.97888303 32.94609622 -29.13671875 29.78125 C-28.31336959 28.63572074 -27.47516528 27.50077091 -26.625 26.375 C-26.17858154 25.76914063 -25.73216309 25.16328125 -25.2722168 24.5390625 C-6.74597825 -0.2870629 -6.74597825 -0.2870629 0 0 Z " fill="#0C0B0B" transform="translate(119.9375,181.125)"/>
<path d="M0 0 C21.15151515 0 21.15151515 0 28.5 6.0625 C30.82473704 10.61511003 30.63363309 14.99128126 30 20 C28.56696299 23.27551317 26.76258961 25.71786076 24 28 C23.34 28 22.68 28 22 28 C22.36351562 28.50450684 22.72703125 29.00901367 23.1015625 29.52880859 C24.73925754 31.80740929 26.3696962 34.09110593 28 36.375 C28.85851562 37.56609375 28.85851562 37.56609375 29.734375 38.78125 C30.27578125 39.54179687 30.8171875 40.30234375 31.375 41.0859375 C31.87773437 41.7876709 32.38046875 42.4894043 32.8984375 43.21240234 C34 45 34 45 34 47 C30.93027171 47.4234108 28.96041396 47.6864728 26 47 C23.45343878 44.69368041 21.82267104 41.89079546 20 39 C18.88592441 37.53330416 17.76128396 36.07455851 16.625 34.625 C14 31.24615385 14 31.24615385 14 29 C12.02 29 10.04 29 8 29 C8 35.27 8 41.54 8 48 C5.36 48 2.72 48 0 48 C0 32.16 0 16.32 0 0 Z " fill="#F2F2F2" transform="translate(240,288)"/>
<path d="M0 0 C18 0 18 0 26 4 C29.3435476 7.51072498 30.27275047 10.27036909 30.5 15 C30.31019025 19.66791382 29.12599384 22.42743562 26 26 C25.01 26.66 24.02 27.32 23 28 C24.6891463 33.02103378 27.64814203 36.68004365 30.8984375 40.80273438 C34 44.8055626 34 44.8055626 34 47 C30.74974517 47.81256371 28.2243071 47.99478622 25 47 C22.50481296 44.21740921 20.70326981 41.33957646 18.82421875 38.11328125 C17.04865334 35.08303364 15.47203758 32.49905439 13 30 C11.02 29.67 9.04 29.34 7 29 C7 34.94 7 40.88 7 47 C4.69 47 2.38 47 0 47 C0 31.49 0 15.98 0 0 Z " fill="#F7F7F7" transform="translate(126,288)"/>
<path d="M0 0 C19 0 19 0 27 4 C30.99018874 8.29712633 32.31802526 10.98820292 32.2109375 16.91015625 C31.73156694 21.65947569 29.49552424 24.76913312 26 27.8125 C20.03087702 32.16498551 14.16760527 31.07096639 7 31 C7 36.28 7 41.56 7 47 C4.69 47 2.38 47 0 47 C0 31.49 0 15.98 0 0 Z " fill="#F9F9F9" transform="translate(415,288)"/>
<path d="M0 0 C2.07194778 2.61042009 3.59381472 5.05242292 4.875 8.125 C6.30645522 11.463241 7.84110082 14.70620865 9.5 17.9375 C11.55615219 21.99355706 13.25372368 26.09943267 14.88671875 30.33984375 C16.62502872 34.49348968 18.73077489 38.45174342 20.828125 42.43359375 C22 45 22 45 22 48 C19.36 48 16.72 48 14 48 C13.34 45.69 12.68 43.38 12 41 C4.41 41.33 -3.18 41.66 -11 42 C-11.99 43.98 -12.98 45.96 -14 48 C-16.31 48 -18.62 48 -21 48 C-20.45027715 42.71609679 -18.63319614 38.85936606 -16.1875 34.25 C-13.93703668 29.89145769 -11.72826853 25.59828913 -10 21 C-7.25677095 13.74291224 -3.52669056 6.89930241 0 0 Z " fill="#F3F3F3" transform="translate(98,287)"/>
<path d="M0 0 C2.64 0 5.28 0 8 0 C8 6.6 8 13.2 8 20 C14.6 20 21.2 20 28 20 C28 13.4 28 6.8 28 0 C30.31 0 32.62 0 35 0 C35 15.51 35 31.02 35 47 C32.36 47 29.72 47 27 47 C27 40.73 27 34.46 27 28 C20.73 28 14.46 28 8 28 C8 34.6 8 41.2 8 48 C5.36 48 2.72 48 0 48 C0 32.16 0 16.32 0 0 Z " fill="#EAEAEA" transform="translate(317,288)"/>
<path d="M0 0 C3.375 1.625 3.375 1.625 6 4 C7.423125 5.2065625 7.423125 5.2065625 8.875 6.4375 C12.02523812 10.42372364 11.62607405 15.06713865 11.41015625 19.93359375 C10.86315031 24.02311436 9.96716464 26.10701448 7 29 C2.12140632 32.56339677 -2.60313699 33.66473157 -8.60546875 33.37890625 C-13.11820926 32.66481844 -16.27867268 31.0175795 -19.31640625 27.45703125 C-23.01542362 21.82472955 -22.43142773 16.78031204 -21.4375 10.375 C-17.40873006 0.91614884 -9.47745491 -0.95311515 0 0 Z " fill="#070506" transform="translate(389,295)"/>
<path d="M0 0 C9.57 0 19.14 0 29 0 C29 2.64 29 5.28 29 8 C22.07 8 15.14 8 8 8 C8 11.96 8 15.92 8 20 C13.61 20 19.22 20 25 20 C25 22.31 25 24.62 25 27 C19.39 27 13.78 27 8 27 C8 31.29 8 35.58 8 40 C14.93 40 21.86 40 29 40 C29 42.31 29 44.62 29 47 C28 48 28 48 25.31616211 48.11352539 C24.14835205 48.10828857 22.98054199 48.10305176 21.77734375 48.09765625 C20.64288818 48.09515869 19.50843262 48.09266113 18.33959961 48.09008789 C16.1605603 48.07643188 16.1605603 48.07643188 13.9375 48.0625 C7.0384375 48.0315625 7.0384375 48.0315625 0 48 C0 32.16 0 16.32 0 0 Z " fill="#E9E9E9" transform="translate(204,288)"/>
<path d="M0 0 C3.23939656 1.73539102 5.42321134 3.42321134 8 6 C7.875 8 7.875 8 7 10 C4.9375 11.25 4.9375 11.25 3 12 C2.34 11.34 1.68 10.68 1 10 C-2.5967314 8.66787726 -6.20990362 8.71925212 -10 9 C-12.22665979 11.68308095 -12.22665979 11.68308095 -11.87060547 14.03515625 C-10.72623407 16.61785423 -9.56828142 17.16231693 -7.0703125 18.4375 C-6.27496094 18.85773438 -5.47960937 19.27796875 -4.66015625 19.7109375 C-3.82355469 20.13632812 -2.98695313 20.56171875 -2.125 21 C-0.47734924 21.84560615 1.16607288 22.69951395 2.8046875 23.5625 C3.53671387 23.93503906 4.26874023 24.30757813 5.02294922 24.69140625 C7.30309009 26.20061285 8.54899975 27.69257073 10 30 C10.83276931 35.03412801 10.84206012 39.55646836 8.25 44 C7.5075 44.66 6.765 45.32 6 46 C5.44570313 46.52722656 4.89140625 47.05445313 4.3203125 47.59765625 C1.04199661 49.57899531 -1.57055846 49.43370315 -5.375 49.4375 C-7.30472656 49.46650391 -7.30472656 49.46650391 -9.2734375 49.49609375 C-14.45734284 48.80599314 -18.75175656 46.15053329 -22 42 C-22 41.01 -22 40.02 -22 39 C-20 37.3125 -20 37.3125 -18 36 C-16.68 36.66 -15.36 37.32 -14 38 C-14 38.66 -14 39.32 -14 40 C-11.70890403 40.08075665 -9.41700733 40.13907731 -7.125 40.1875 C-5.84882813 40.22230469 -4.57265625 40.25710938 -3.2578125 40.29296875 C-2.18273437 40.19628906 -1.10765625 40.09960938 0 40 C2.22534695 37.26290478 2.22534695 37.26290478 2 34.5625 C0.00450776 29.44905113 -5.3730265 27.82275325 -10.0625 25.625 C-14.71217108 23.31769716 -17.34878585 21.50706405 -20 17 C-20.72971741 12.82070939 -20.98909309 10.62516582 -18.78515625 7.00390625 C-13.45044286 0.47465144 -8.34606199 -1.10578739 0 0 Z " fill="#EFEFEF" transform="translate(300,287)"/>
<path d="M0 0 C9.88168273 -0.4820333 9.88168273 -0.4820333 14.625 1.5625 C17 4 17 4 18.1875 7.375 C17.99954153 11.00886382 17.52646406 13.19365487 15.01171875 15.91015625 C10.49175757 18.35883425 4.93807995 17.29927757 0 17 C0 11.39 0 5.78 0 0 Z " fill="#171516" transform="translate(422,295)"/>
<path d="M0 0 C12.05357143 -0.53571429 12.05357143 -0.53571429 15.75 1.5625 C18 4 18 4 18.625 7.5 C17.89802111 11.57108178 17.27330456 12.56355971 14 15 C9.2805118 15.53387876 4.76525513 15.17649093 0 15 C0 10.05 0 5.1 0 0 Z " fill="#141314" transform="translate(173,313)"/>
<path d="M0 0 C10.9030837 -0.43612335 10.9030837 -0.43612335 15 3 C16.44430855 5.88861709 16.37688506 7.79647701 16 11 C14.1875 13.875 14.1875 13.875 11 16 C7.22851721 16.41846508 3.81542502 16.22984488 0 16 C0 10.72 0 5.44 0 0 Z " fill="#181718" transform="translate(247,295)"/>
<path d="M0 0 C9.91071429 -0.66964286 9.91071429 -0.66964286 13.6875 2.0625 C16 5 16 5 16.125 8.5625 C14.34193548 14.01075269 14.34193548 14.01075269 11 16 C7.26623014 16.32818438 3.7627917 16.17918056 0 16 C0 10.72 0 5.44 0 0 Z " fill="#151414" transform="translate(133,295)"/>
<path d="M0 0 C2.0625 -0.061875 4.125 -0.12375 6.25 -0.1875 C7.99023438 -0.23970703 7.99023438 -0.23970703 9.765625 -0.29296875 C13.25783984 0.02335506 14.60873763 0.47556806 17 3 C17.661707 7.04376502 17.66441945 9.07455862 15.25 12.4375 C10.1674438 14.88103663 5.59815683 14.24607283 0 14 C0 9.38 0 4.76 0 0 Z " fill="#070506" transform="translate(50,314)"/>
<path d="M0 0 C10.33828733 -0.36922455 10.33828733 -0.36922455 13.32421875 1.296875 C15 3 15 3 15.5625 6.4375 C15 10 15 10 13.125 12.4375 C8.59021366 14.70489317 5.03940403 14.26876822 0 14 C0 9.38 0 4.76 0 0 Z " fill="#F4F4F4" transform="translate(409,218)"/>
<path d="M0 0 C2.0128575 3.01928624 2.90268778 5.44703368 3.98828125 8.890625 C4.36283447 10.06882813 4.7373877 11.24703125 5.12329102 12.4609375 C5.51572998 13.71132812 5.90816895 14.96171875 6.3125 16.25 C7.11802359 18.79743845 7.926297 21.34399455 8.734375 23.890625 C9.31735352 25.73043945 9.31735352 25.73043945 9.91210938 27.60742188 C11.60004595 32.87123844 13.39552138 38.09563008 15.22265625 43.3125 C16 46 16 46 16 50 C14.02 50.66 12.04 51.32 10 52 C10 51.01 10 50.02 10 49 C10.66 49 11.32 49 12 49 C9.08540459 38.60504386 5.94814253 28.29474896 2.70092773 17.99829102 C2.10703385 16.11282671 1.51636478 14.22634758 0.92578125 12.33984375 C0.57942627 11.24019287 0.23307129 10.14054199 -0.1237793 9.00756836 C-0.89925085 6.34581463 -1.50799641 3.72642759 -2 1 C-1.34 0.67 -0.68 0.34 0 0 Z " fill="#757575" transform="translate(121,218)"/>
<path d="M0 0 C2.31987488 2.86338843 3.79609627 5.56787067 5.125 9 C5.45757812 9.845625 5.79015625 10.69125 6.1328125 11.5625 C7 14 7 14 8 18 C2.72 18 -2.56 18 -8 18 C-6.50748294 13.52244882 -4.99752948 9.77777506 -2.875 5.625 C-2.33617188 4.56539063 -1.79734375 3.50578125 -1.2421875 2.4140625 C-0.83226563 1.61742187 -0.42234375 0.82078125 0 0 Z " fill="#181717" transform="translate(98,304)"/>
<path d="M0 0 C1.423125 -0.061875 2.84625 -0.12375 4.3125 -0.1875 C5.51326172 -0.23970703 5.51326172 -0.23970703 6.73828125 -0.29296875 C9 0 9 0 10.76953125 1.32421875 C12.6691714 3.91134772 12.38880875 5.88952999 12 9 C10.76953125 10.67578125 10.76953125 10.67578125 9 12 C6.73828125 12.29296875 6.73828125 12.29296875 4.3125 12.1875 C2.889375 12.125625 1.46625 12.06375 0 12 C0 8.04 0 4.08 0 0 Z " fill="#141414" transform="translate(173,295)"/>
<path d="M0 0 C0.66 0 1.32 0 2 0 C0.23711995 6.88141774 -1.79721155 13.66593196 -3.9375 20.4375 C-4.19692383 21.26000244 -4.45634766 22.08250488 -4.72363281 22.92993164 C-6.1963073 27.56682882 -7.75353464 32.1625802 -9.375 36.75 C-10.83898011 41.05724727 -11.41148425 44.47367329 -11 49 C-12.485 49.495 -12.485 49.495 -14 50 C-14.66 49.67 -15.32 49.34 -16 49 C-14.95049828 41.32453965 -12.87357033 34.40054395 -10.12109375 27.1640625 C-9.15110803 24.42647215 -8.47631232 21.85787394 -8 19 C-7.34 19 -6.68 19 -6 19 C-4.02 12.73 -2.04 6.46 0 0 Z " fill="#A2A2A2" transform="translate(52,219)"/>
<path d="M0 0 C2.30854925 2.12333613 3.78412576 4.13612842 5.1875 6.9375 C5.53167969 7.60652344 5.87585938 8.27554688 6.23046875 8.96484375 C7 11 7 11 7 15 C2.71 15 -1.58 15 -6 15 C-4.32819664 9.74576086 -2.62305301 4.87138415 0 0 Z " fill="#F0F0F0" transform="translate(178,234)"/>
<path d="M0 0 C6.8359375 -0.1953125 6.8359375 -0.1953125 9 0 C11 2 11 2 11.3125 5.5 C11.1578125 7.2325 11.1578125 7.2325 11 9 C7.91111478 11.05925681 7.29064073 11.2390374 3.8125 11.125 C1.9253125 11.063125 1.9253125 11.063125 0 11 C0 7.37 0 3.74 0 0 Z " fill="#070607" transform="translate(50,296)"/>
<path d="M0 0 C3.12910468 1.25164187 4.92874253 3.42801274 7.1875 5.875 C6.713125 6.6175 6.23875 7.36 5.75 8.125 C4.39103086 10.51678568 3.76704259 12.24173854 3.1875 14.875 C2.00606904 13.49164079 0.84284866 12.09271574 -0.3125 10.6875 C-0.9621875 9.91019531 -1.611875 9.13289062 -2.28125 8.33203125 C-4.0077605 5.56168659 -4.13088702 4.07592666 -3.8125 0.875 C-1.8125 -0.125 -1.8125 -0.125 0 0 Z " fill="#222222" transform="translate(53.8125,181.125)"/>
<path d="M0 0 C1.65 0.33 3.3 0.66 5 1 C5.8125 3.1875 5.8125 3.1875 6 6 C3.5625 8.8125 3.5625 8.8125 1 11 C-0.32 10.34 -1.64 9.68 -3 9 C-2.01 6.03 -1.02 3.06 0 0 Z " fill="#292929" transform="translate(117,181)"/>
<path d="M0 0 C1.28003427 3.84010282 0.40862734 5.22903047 -0.9375 9 C-2.9589159 15.18928374 -3.46641124 20.53502194 -3 27 C-3.99 27.33 -4.98 27.66 -6 28 C-6.66 27.67 -7.32 27.34 -8 27 C-6.82225863 17.41562198 -3.55191619 8.90212957 0 0 Z " fill="#5A5A5A" transform="translate(44,241)"/>
<path d="M0 0 C0.99 0 1.98 0 3 0 C3.05449838 1.72880982 3.09301688 3.45812712 3.125 5.1875 C3.14820312 6.15042969 3.17140625 7.11335937 3.1953125 8.10546875 C2.9913544 11.12812778 2.26874632 13.26769985 1 16 C0.01 15.67 -0.98 15.34 -2 15 C-1.85973717 12.68715544 -1.71264442 10.37472409 -1.5625 8.0625 C-1.48128906 6.77472656 -1.40007813 5.48695313 -1.31640625 4.16015625 C-1 1 -1 1 0 0 Z " fill="#2C2C2D" transform="translate(64,169)"/>
<path d="M0 0 C0.99 0 1.98 0 3 0 C3.66 4.95 4.32 9.9 5 15 C3.68 15 2.36 15 1 15 C-0.09506492 11.71480525 -0.09960608 9.26336585 -0.0625 5.8125 C-0.05347656 4.72582031 -0.04445313 3.63914063 -0.03515625 2.51953125 C-0.02355469 1.68808594 -0.01195313 0.85664063 0 0 Z " fill="#1E1E1E" transform="translate(106,169)"/>
<path d="M0 0 C7.59 0 15.18 0 23 0 C23 0.33 23 0.66 23 1 C22.37955811 1.02505615 21.75911621 1.0501123 21.11987305 1.07592773 C18.30887603 1.19196721 15.49820759 1.31465759 12.6875 1.4375 C11.71103516 1.47681641 10.73457031 1.51613281 9.72851562 1.55664062 C8.79072266 1.59853516 7.85292969 1.64042969 6.88671875 1.68359375 C5.59060669 1.73858032 5.59060669 1.73858032 4.26831055 1.79467773 C1.8352174 1.92747354 1.8352174 1.92747354 -1 3 C-0.67 2.01 -0.34 1.02 0 0 Z " fill="#444444" transform="translate(87,328)"/>
<path d="M0 0 C0.66 0.33 1.32 0.66 2 1 C-0.97 3.97 -3.94 6.94 -7 10 C-7 6.04435836 -5.59478606 4.89133304 -3 2 C-2.01 1.34 -1.02 0.68 0 0 Z " fill="#DBDBDB" transform="translate(370,291)"/>
<path d="M0 0 C0.33 0 0.66 0 1 0 C1.33 3.96 1.66 7.92 2 12 C0.68 12.33 -0.64 12.66 -2 13 C-1.34 8.71 -0.68 4.42 0 0 Z " fill="#575657" transform="translate(270,299)"/>
</svg>
